<svg width="112" height="35" viewBox="0 0 112 35" fill="none" xmlns="http://www.w3.org/2000/svg">
<path d="M32.2639 0.0159912V0.97599C31.2399 1.10399 30.4719 1.37599 29.9599 1.79199C29.4479 2.17599 29.0959 2.79999 28.9039 3.66399C28.7439 4.52799 28.6639 5.74399 28.6639 7.31199V34.096C28.2799 34.064 27.8799 34.048 27.4639 34.048C27.0799 34.048 26.6639 34.064 26.2159 34.096L5.38393 7.69599V26.128C5.38393 27.888 5.47993 29.248 5.67193 30.208C5.86393 31.136 6.27993 31.808 6.91993 32.224C7.59193 32.608 8.63193 32.88 10.0399 33.04V34C9.43193 33.936 8.63193 33.904 7.63993 33.904C6.64793 33.872 5.71993 33.856 4.85593 33.856C4.11993 33.856 3.36793 33.872 2.59993 33.904C1.83193 33.904 1.19193 33.936 0.679932 34V33.04C1.70393 32.88 2.47193 32.608 2.98393 32.224C3.49593 31.84 3.83193 31.216 3.99193 30.352C4.18393 29.456 4.27993 28.24 4.27993 26.704V5.10399C4.27993 3.91999 4.18393 3.05599 3.99193 2.51199C3.83193 1.93599 3.47993 1.55199 2.93593 1.35999C2.42393 1.13599 1.67193 1.00799 0.679932 0.97599V0.0159912C1.19193 0.0479908 1.83193 0.0799904 2.59993 0.11199C3.36793 0.14399 4.11993 0.159989 4.85593 0.159989C5.62393 0.159989 6.35993 0.14399 7.06393 0.11199C7.76793 0.0799904 8.40793 0.0479908 8.98393 0.0159912L27.5599 22.912V7.88799C27.5599 6.12799 27.4639 4.78399 27.2719 3.85599C27.0799 2.89599 26.6479 2.20799 25.9759 1.79199C25.3359 1.37599 24.3119 1.10399 22.9039 0.97599V0.0159912C23.5119 0.0479908 24.3119 0.0799904 25.3039 0.11199C26.2959 0.14399 27.2239 0.159989 28.0879 0.159989C28.8559 0.159989 29.6079 0.14399 30.3439 0.11199C31.1119 0.0799904 31.7519 0.0479908 32.2639 0.0159912Z" fill="#141414"/>
<path d="M40.4322 34.336C38.9922 34.336 37.7922 34.064 36.8322 33.52C35.8722 32.976 35.1682 32.256 34.7202 31.36C34.2722 30.432 34.0482 29.424 34.0482 28.336C34.0482 26.96 34.3522 25.84 34.9602 24.976C35.6002 24.112 36.4162 23.408 37.4082 22.864C38.4002 22.32 39.4402 21.872 40.5282 21.52C41.6482 21.168 42.7042 20.832 43.6962 20.512C44.7202 20.16 45.5362 19.76 46.1442 19.312C46.7842 18.832 47.1042 18.224 47.1042 17.488V13.744C47.1042 12.912 46.9602 12.176 46.6722 11.536C46.4162 10.864 46.0002 10.352 45.4242 9.99999C44.8802 9.64799 44.1602 9.47199 43.2642 9.47199C42.6242 9.47199 41.9842 9.56799 41.3442 9.75999C40.7042 9.91999 40.1762 10.208 39.7602 10.624C40.6562 10.944 41.3442 11.44 41.8242 12.112C42.3362 12.752 42.5922 13.488 42.5922 14.32C42.5922 15.408 42.2082 16.272 41.4402 16.912C40.7042 17.552 39.8242 17.872 38.8002 17.872C37.6482 17.872 36.7682 17.52 36.1602 16.816C35.5842 16.08 35.2962 15.2 35.2962 14.176C35.2962 13.248 35.5202 12.48 35.9682 11.872C36.4482 11.264 37.1042 10.688 37.9362 10.144C38.8322 9.63199 39.9042 9.23199 41.1522 8.94399C42.4322 8.65599 43.8082 8.51199 45.2802 8.51199C46.7522 8.51199 48.0802 8.67199 49.2642 8.99199C50.4482 9.27999 51.4402 9.82399 52.2402 10.624C52.9762 11.36 53.4562 12.272 53.6802 13.36C53.9042 14.416 54.0162 15.76 54.0162 17.392V30.448C54.0162 31.248 54.0962 31.808 54.2562 32.128C54.4162 32.416 54.6882 32.56 55.0722 32.56C55.3602 32.56 55.6322 32.48 55.8882 32.32C56.1762 32.16 56.4802 31.968 56.8002 31.744L57.2802 32.56C56.6082 33.136 55.8242 33.584 54.9282 33.904C54.0642 34.192 53.0882 34.336 52.0002 34.336C50.8162 34.336 49.8722 34.176 49.1682 33.856C48.4642 33.504 47.9522 33.04 47.6322 32.464C47.3442 31.888 47.2002 31.216 47.2002 30.448C46.4322 31.664 45.5042 32.624 44.4162 33.328C43.3282 34 42.0002 34.336 40.4322 34.336ZM43.8402 31.264C44.4802 31.264 45.0562 31.12 45.5682 30.832C46.1122 30.512 46.6242 30 47.1042 29.296V19.456C46.8162 19.936 46.4162 20.368 45.9042 20.752C45.3922 21.136 44.8482 21.536 44.2722 21.952C43.6962 22.336 43.1362 22.768 42.5922 23.248C42.0802 23.728 41.6642 24.32 41.3442 25.024C41.0242 25.728 40.8642 26.576 40.8642 27.568C40.8642 28.816 41.1362 29.744 41.6802 30.352C42.2242 30.96 42.9442 31.264 43.8402 31.264Z" fill="#141414"/>
<path d="M76.5079 8.51199C77.8519 8.51199 78.9399 8.68799 79.7719 9.03999C80.6359 9.35999 81.3079 9.80799 81.7879 10.384C82.2999 10.992 82.6679 11.776 82.8919 12.736C83.1479 13.696 83.2759 14.992 83.2759 16.624V29.536C83.2759 30.88 83.4999 31.792 83.9479 32.272C84.4279 32.752 85.2279 32.992 86.3479 32.992V34C85.7399 33.968 84.8279 33.936 83.6119 33.904C82.3959 33.84 81.1959 33.808 80.0119 33.808C78.7959 33.808 77.5959 33.84 76.4119 33.904C75.2599 33.936 74.3799 33.968 73.7719 34V32.992C74.7319 32.992 75.4039 32.752 75.7879 32.272C76.1719 31.792 76.3639 30.88 76.3639 29.536V14.608C76.3639 13.808 76.2839 13.12 76.1239 12.544C75.9639 11.936 75.6759 11.472 75.2599 11.152C74.8439 10.8 74.2199 10.624 73.3879 10.624C72.5239 10.624 71.7239 10.864 70.9879 11.344C70.2839 11.824 69.7079 12.496 69.2599 13.36C68.8439 14.192 68.6359 15.136 68.6359 16.192V29.536C68.6359 30.88 68.8279 31.792 69.2119 32.272C69.6279 32.752 70.2999 32.992 71.2279 32.992V34C70.6519 33.968 69.8039 33.936 68.6839 33.904C67.5959 33.84 66.4599 33.808 65.2759 33.808C64.0599 33.808 62.8119 33.84 61.5319 33.904C60.2519 33.936 59.2919 33.968 58.6519 34V32.992C59.7719 32.992 60.5559 32.752 61.0039 32.272C61.4839 31.792 61.7239 30.88 61.7239 29.536V14.416C61.7239 12.976 61.4999 11.92 61.0519 11.248C60.6359 10.544 59.8359 10.192 58.6519 10.192V9.18399C59.6759 9.27999 60.6679 9.32799 61.6279 9.32799C62.9719 9.32799 64.2199 9.27999 65.3719 9.18399C66.5559 9.05599 67.6439 8.87999 68.6359 8.65599V12.976C69.4359 11.344 70.5239 10.192 71.8999 9.51999C73.2759 8.84799 74.8119 8.51199 76.5079 8.51199Z" fill="#141414"/>
<path d="M94.7603 34.336C93.3203 34.336 92.1203 34.064 91.1603 33.52C90.2003 32.976 89.4963 32.256 89.0483 31.36C88.6003 30.432 88.3763 29.424 88.3763 28.336C88.3763 26.96 88.6803 25.84 89.2883 24.976C89.9283 24.112 90.7443 23.408 91.7363 22.864C92.7283 22.32 93.7683 21.872 94.8563 21.52C95.9763 21.168 97.0323 20.832 98.0243 20.512C99.0483 20.16 99.8643 19.76 100.472 19.312C101.112 18.832 101.432 18.224 101.432 17.488V13.744C101.432 12.912 101.288 12.176 101 11.536C100.744 10.864 100.328 10.352 99.7523 9.99999C99.2083 9.64799 98.4883 9.47199 97.5923 9.47199C96.9523 9.47199 96.3123 9.56799 95.6723 9.75999C95.0323 9.91999 94.5043 10.208 94.0883 10.624C94.9843 10.944 95.6723 11.44 96.1523 12.112C96.6643 12.752 96.9203 13.488 96.9203 14.32C96.9203 15.408 96.5363 16.272 95.7683 16.912C95.0323 17.552 94.1523 17.872 93.1283 17.872C91.9763 17.872 91.0963 17.52 90.4883 16.816C89.9123 16.08 89.6243 15.2 89.6243 14.176C89.6243 13.248 89.8483 12.48 90.2963 11.872C90.7763 11.264 91.4323 10.688 92.2643 10.144C93.1603 9.63199 94.2323 9.23199 95.4803 8.94399C96.7603 8.65599 98.1363 8.51199 99.6083 8.51199C101.08 8.51199 102.408 8.67199 103.592 8.99199C104.776 9.27999 105.768 9.82399 106.568 10.624C107.304 11.36 107.784 12.272 108.008 13.36C108.232 14.416 108.344 15.76 108.344 17.392V30.448C108.344 31.248 108.424 31.808 108.584 32.128C108.744 32.416 109.016 32.56 109.4 32.56C109.688 32.56 109.96 32.48 110.216 32.32C110.504 32.16 110.808 31.968 111.128 31.744L111.608 32.56C110.936 33.136 110.152 33.584 109.256 33.904C108.392 34.192 107.416 34.336 106.328 34.336C105.144 34.336 104.2 34.176 103.496 33.856C102.792 33.504 102.28 33.04 101.96 32.464C101.672 31.888 101.528 31.216 101.528 30.448C100.76 31.664 99.8323 32.624 98.7443 33.328C97.6563 34 96.3283 34.336 94.7603 34.336ZM98.1683 31.264C98.8083 31.264 99.3843 31.12 99.8963 30.832C100.44 30.512 100.952 30 101.432 29.296V19.456C101.144 19.936 100.744 20.368 100.232 20.752C99.7203 21.136 99.1763 21.536 98.6003 21.952C98.0243 22.336 97.4643 22.768 96.9203 23.248C96.4083 23.728 95.9923 24.32 95.6723 25.024C95.3523 25.728 95.1923 26.576 95.1923 27.568C95.1923 28.816 95.4643 29.744 96.0083 30.352C96.5523 30.96 97.2723 31.264 98.1683 31.264Z" fill="#141414"/>
</svg>
